<svg width="851" height="638" viewBox="0 0 851 638" fill="none" xmlns="http://www.w3.org/2000/svg">
<rect x="240" width="610" height="390" rx="12" fill="#A5A5A5"/>
<rect x="165" y="53" width="610" height="390" rx="12" fill="url(#paint0_linear_41164_6147)"/>
<g opacity="0.6">
<path d="M331.018 252.397C333.063 250.352 334.211 247.58 334.211 244.689C334.211 241.798 333.063 239.026 331.018 236.982" stroke="white" stroke-width="5" stroke-linecap="round" stroke-linejoin="round"/>
<path d="M339.405 257.512C342.309 253.867 343.889 249.346 343.889 244.686C343.888 240.027 342.306 235.506 339.402 231.862" stroke="white" stroke-width="5" stroke-linecap="round" stroke-linejoin="round"/>
<path d="M346.799 262.555C350.689 257.442 352.803 251.199 352.822 244.775C352.841 238.35 350.762 232.095 346.903 226.959" stroke="white" stroke-width="5" stroke-linecap="round" stroke-linejoin="round"/>
<path d="M355.055 221.709C360.047 228.605 362.658 236.939 362.492 245.45C362.327 253.962 359.394 262.188 354.138 268.885" stroke="white" stroke-width="5" stroke-linecap="round" stroke-linejoin="round"/>
</g>
<rect x="230.5" y="212.55" width="84.75" height="61.4861" rx="12.5" fill="url(#paint1_linear_41164_6147)" stroke="url(#paint2_linear_41164_6147)"/>
<mask id="mask0_41164_6147" style="mask-type:alpha" maskUnits="userSpaceOnUse" x="231" y="213" width="84" height="61">
<rect x="231.5" y="213.55" width="82.75" height="59.4861" rx="11.5" fill="#DCD59E" stroke="black"/>
</mask>
<g mask="url(#mask0_41164_6147)">
<path opacity="0.5" fill-rule="evenodd" clip-rule="evenodd" d="M274.848 215.031C274.115 213.54 271.989 213.54 271.257 215.031L263.731 230.358C263.731 230.358 267.46 241.618 263.731 254.46L271.222 271.437C271.924 273.027 274.18 273.027 274.882 271.437L282.373 254.46C282.373 254.46 278.645 247.481 282.373 230.358L274.848 215.031Z" stroke="#BFB985" stroke-width="1.3" stroke-linejoin="bevel"/>
<path opacity="0.5" d="M230.176 230.277H263.495" stroke="#BFB985" stroke-width="1.3" stroke-linejoin="bevel"/>
<path opacity="0.5" d="M281.581 230.277H315.852" stroke="#BFB985" stroke-width="1.3" stroke-linejoin="bevel"/>
<path opacity="0.5" d="M230.176 254.275H263.495" stroke="#BFB985" stroke-width="1.3" stroke-linejoin="bevel"/>
<path opacity="0.5" d="M281.581 254.275H315.852" stroke="#BFB985" stroke-width="1.3" stroke-linejoin="bevel"/>
</g>
<path d="M210.955 388.545V406H208.909L199.398 392.295H199.227V406H197.114V388.545H199.159L208.705 402.284H208.875V388.545H210.955ZM229.911 397.273C229.911 399.114 229.579 400.705 228.914 402.045C228.249 403.386 227.337 404.42 226.178 405.148C225.019 405.875 223.695 406.239 222.207 406.239C220.718 406.239 219.394 405.875 218.235 405.148C217.076 404.42 216.164 403.386 215.499 402.045C214.835 400.705 214.502 399.114 214.502 397.273C214.502 395.432 214.835 393.841 215.499 392.5C216.164 391.159 217.076 390.125 218.235 389.398C219.394 388.67 220.718 388.307 222.207 388.307C223.695 388.307 225.019 388.67 226.178 389.398C227.337 390.125 228.249 391.159 228.914 392.5C229.579 393.841 229.911 395.432 229.911 397.273ZM227.866 397.273C227.866 395.761 227.613 394.486 227.107 393.446C226.607 392.406 225.928 391.619 225.07 391.085C224.218 390.551 223.263 390.284 222.207 390.284C221.15 390.284 220.192 390.551 219.335 391.085C218.482 391.619 217.803 392.406 217.298 393.446C216.798 394.486 216.548 395.761 216.548 397.273C216.548 398.784 216.798 400.06 217.298 401.099C217.803 402.139 218.482 402.926 219.335 403.46C220.192 403.994 221.15 404.261 222.207 404.261C223.263 404.261 224.218 403.994 225.07 403.46C225.928 402.926 226.607 402.139 227.107 401.099C227.613 400.06 227.866 398.784 227.866 397.273ZM233.465 388.545H235.988L241.92 403.034H242.124L248.056 388.545H250.579V406H248.602V392.739H248.431L242.977 406H241.067L235.613 392.739H235.442V406H233.465V388.545ZM254.817 406V388.545H265.351V390.42H256.93V396.318H264.805V398.193H256.93V404.125H265.487V406H254.817ZM285.456 392.909C285.354 392.045 284.939 391.375 284.212 390.898C283.484 390.42 282.592 390.182 281.536 390.182C280.763 390.182 280.087 390.307 279.507 390.557C278.933 390.807 278.484 391.151 278.161 391.588C277.842 392.026 277.683 392.523 277.683 393.08C277.683 393.545 277.794 393.946 278.016 394.281C278.243 394.611 278.533 394.886 278.885 395.108C279.237 395.324 279.607 395.503 279.993 395.645C280.379 395.781 280.734 395.892 281.058 395.977L282.831 396.455C283.286 396.574 283.791 396.739 284.348 396.949C284.911 397.159 285.447 397.446 285.959 397.81C286.476 398.168 286.902 398.628 287.237 399.19C287.572 399.753 287.74 400.443 287.74 401.261C287.74 402.205 287.493 403.057 286.999 403.818C286.51 404.58 285.794 405.185 284.851 405.634C283.913 406.082 282.774 406.307 281.433 406.307C280.183 406.307 279.101 406.105 278.186 405.702C277.277 405.298 276.561 404.736 276.038 404.014C275.521 403.293 275.229 402.455 275.161 401.5H277.342C277.399 402.159 277.621 402.705 278.007 403.136C278.399 403.562 278.893 403.881 279.49 404.091C280.092 404.295 280.74 404.398 281.433 404.398C282.24 404.398 282.964 404.267 283.607 404.006C284.249 403.739 284.757 403.369 285.132 402.898C285.507 402.42 285.695 401.864 285.695 401.227C285.695 400.648 285.533 400.176 285.209 399.812C284.885 399.449 284.459 399.153 283.93 398.926C283.402 398.699 282.831 398.5 282.217 398.33L280.07 397.716C278.706 397.324 277.626 396.764 276.831 396.037C276.036 395.31 275.638 394.358 275.638 393.182C275.638 392.205 275.902 391.352 276.43 390.625C276.964 389.892 277.68 389.324 278.578 388.92C279.482 388.511 280.49 388.307 281.604 388.307C282.729 388.307 283.729 388.509 284.604 388.912C285.479 389.31 286.172 389.855 286.683 390.548C287.2 391.241 287.473 392.028 287.501 392.909H285.456ZM305.942 397.273C305.942 399.114 305.61 400.705 304.945 402.045C304.281 403.386 303.369 404.42 302.21 405.148C301.05 405.875 299.727 406.239 298.238 406.239C296.749 406.239 295.425 405.875 294.266 405.148C293.107 404.42 292.195 403.386 291.531 402.045C290.866 400.705 290.533 399.114 290.533 397.273C290.533 395.432 290.866 393.841 291.531 392.5C292.195 391.159 293.107 390.125 294.266 389.398C295.425 388.67 296.749 388.307 298.238 388.307C299.727 388.307 301.05 388.67 302.21 389.398C303.369 390.125 304.281 391.159 304.945 392.5C305.61 393.841 305.942 395.432 305.942 397.273ZM303.897 397.273C303.897 395.761 303.644 394.486 303.138 393.446C302.638 392.406 301.96 391.619 301.102 391.085C300.249 390.551 299.295 390.284 298.238 390.284C297.181 390.284 296.224 390.551 295.366 391.085C294.513 391.619 293.835 392.406 293.329 393.446C292.829 394.486 292.579 395.761 292.579 397.273C292.579 398.784 292.829 400.06 293.329 401.099C293.835 402.139 294.513 402.926 295.366 403.46C296.224 403.994 297.181 404.261 298.238 404.261C299.295 404.261 300.249 403.994 301.102 403.46C301.96 402.926 302.638 402.139 303.138 401.099C303.644 400.06 303.897 398.784 303.897 397.273ZM309.496 406V388.545H315.599C316.815 388.545 317.817 388.756 318.607 389.176C319.397 389.591 319.985 390.151 320.371 390.855C320.758 391.554 320.951 392.33 320.951 393.182C320.951 393.932 320.817 394.551 320.55 395.04C320.289 395.528 319.942 395.915 319.511 396.199C319.085 396.483 318.621 396.693 318.121 396.83V397C318.656 397.034 319.192 397.222 319.732 397.562C320.272 397.903 320.724 398.392 321.087 399.028C321.451 399.665 321.633 400.443 321.633 401.364C321.633 402.239 321.434 403.026 321.036 403.724C320.638 404.423 320.011 404.977 319.153 405.386C318.295 405.795 317.178 406 315.803 406H309.496ZM311.61 404.125H315.803C317.184 404.125 318.164 403.858 318.744 403.324C319.329 402.784 319.621 402.131 319.621 401.364C319.621 400.773 319.471 400.227 319.17 399.727C318.869 399.222 318.44 398.818 317.883 398.517C317.326 398.21 316.667 398.057 315.906 398.057H311.61V404.125ZM311.61 396.216H315.531C316.167 396.216 316.741 396.091 317.252 395.841C317.769 395.591 318.178 395.239 318.479 394.784C318.786 394.33 318.94 393.795 318.94 393.182C318.94 392.415 318.673 391.764 318.138 391.23C317.604 390.69 316.758 390.42 315.599 390.42H311.61V396.216ZM325.106 406V388.545H331.004C332.367 388.545 333.487 388.778 334.362 389.244C335.237 389.705 335.884 390.338 336.305 391.145C336.725 391.952 336.935 392.869 336.935 393.898C336.935 394.926 336.725 395.838 336.305 396.634C335.884 397.429 335.239 398.054 334.37 398.509C333.501 398.957 332.39 399.182 331.038 399.182H326.265V397.273H330.969C331.901 397.273 332.651 397.136 333.219 396.864C333.793 396.591 334.208 396.205 334.464 395.705C334.725 395.199 334.856 394.597 334.856 393.898C334.856 393.199 334.725 392.588 334.464 392.065C334.202 391.543 333.785 391.139 333.211 390.855C332.637 390.565 331.879 390.42 330.935 390.42H327.219V406H325.106ZM333.322 398.159L337.617 406H335.163L330.935 398.159H333.322ZM340.457 406V388.545H350.991V390.42H342.571V396.318H350.446V398.193H342.571V404.125H351.128V406H340.457ZM368.642 388.545V406H366.597L357.085 392.295H356.915V406H354.801V388.545H356.847L366.392 402.284H366.562V388.545H368.642ZM387.599 397.273C387.599 399.114 387.266 400.705 386.602 402.045C385.937 403.386 385.025 404.42 383.866 405.148C382.707 405.875 381.383 406.239 379.894 406.239C378.406 406.239 377.082 405.875 375.923 405.148C374.763 404.42 373.852 403.386 373.187 402.045C372.522 400.705 372.19 399.114 372.19 397.273C372.19 395.432 372.522 393.841 373.187 392.5C373.852 391.159 374.763 390.125 375.923 389.398C377.082 388.67 378.406 388.307 379.894 388.307C381.383 388.307 382.707 388.67 383.866 389.398C385.025 390.125 385.937 391.159 386.602 392.5C387.266 393.841 387.599 395.432 387.599 397.273ZM385.553 397.273C385.553 395.761 385.3 394.486 384.795 393.446C384.295 392.406 383.616 391.619 382.758 391.085C381.906 390.551 380.951 390.284 379.894 390.284C378.837 390.284 377.88 390.551 377.022 391.085C376.17 391.619 375.491 392.406 374.985 393.446C374.485 394.486 374.235 395.761 374.235 397.273C374.235 398.784 374.485 400.06 374.985 401.099C375.491 402.139 376.17 402.926 377.022 403.46C377.88 403.994 378.837 404.261 379.894 404.261C380.951 404.261 381.906 403.994 382.758 403.46C383.616 402.926 384.295 402.139 384.795 401.099C385.3 400.06 385.553 398.784 385.553 397.273ZM391.153 388.545H393.675L399.607 403.034H399.812L405.744 388.545H408.266V406H406.289V392.739H406.119L400.664 406H398.755L393.3 392.739H393.13V406H391.153V388.545ZM412.504 406V388.545H423.038V390.42H414.618V396.318H422.493V398.193H414.618V404.125H423.175V406H412.504Z" fill="white"/>
<path d="M196.76 105.16C196.76 103.389 196.856 101.864 197.048 100.584C197.24 99.2827 197.592 98.056 198.104 96.904C198.616 95.7307 199.384 94.8453 200.408 94.248C201.432 93.6293 202.712 93.32 204.248 93.32C205.08 93.32 206.36 93.416 208.088 93.608C209.837 93.7787 211.267 93.9707 212.376 94.184V96.072C212.355 96.072 212.152 96.0613 211.768 96.04C211.405 96.0187 210.925 95.9867 210.328 95.944C209.752 95.9013 209.123 95.8587 208.44 95.816C207.757 95.7733 207.032 95.7413 206.264 95.72C205.517 95.6987 204.845 95.688 204.248 95.688C202.221 95.688 200.856 96.424 200.152 97.896C199.469 99.3467 199.128 101.789 199.128 105.224C199.128 108.787 199.512 111.272 200.28 112.68C201.048 114.088 202.413 114.803 204.376 114.824C204.397 114.824 204.419 114.824 204.44 114.824C204.909 114.824 205.432 114.781 206.008 114.696C206.584 114.589 207.128 114.461 207.64 114.312C208.152 114.163 208.632 114.013 209.08 113.864C209.528 113.715 209.88 113.597 210.136 113.512L210.52 113.352V106.952H205.144V105.352C207.085 104.819 208.941 104.552 210.712 104.552C211.395 104.552 212.12 104.584 212.888 104.648V117H211.096L210.584 115.432C208.493 116.584 206.424 117.16 204.376 117.16C204.333 117.16 204.291 117.16 204.248 117.16C202.989 117.16 201.901 116.957 200.984 116.552C200.067 116.125 199.341 115.581 198.808 114.92C198.275 114.237 197.848 113.363 197.528 112.296C197.208 111.208 196.995 110.12 196.888 109.032C196.803 107.944 196.76 106.653 196.76 105.16ZM233.216 117V93.576H235.584V104.488H246.784V93.576H249.152V117H246.784V106.856H235.584V117H233.216ZM269.143 105.448C269.143 103.656 269.239 102.099 269.431 100.776C269.623 99.432 269.921 98.3227 270.327 97.448C270.732 96.5733 271.169 95.8693 271.639 95.336C272.129 94.7813 272.748 94.3653 273.495 94.088C274.241 93.8107 274.967 93.6293 275.671 93.544C276.375 93.4587 277.228 93.416 278.231 93.416C279.105 93.416 279.852 93.448 280.471 93.512C281.111 93.576 281.761 93.704 282.423 93.896C283.105 94.088 283.671 94.3547 284.119 94.696C284.567 95.0373 285.004 95.5067 285.431 96.104C285.857 96.7013 286.188 97.4267 286.423 98.28C286.679 99.112 286.881 100.125 287.031 101.32C287.18 102.515 287.255 103.891 287.255 105.448C287.255 107.475 287.116 109.203 286.839 110.632C286.583 112.04 286.22 113.171 285.751 114.024C285.303 114.877 284.673 115.539 283.863 116.008C283.073 116.456 282.252 116.755 281.399 116.904C280.545 117.053 279.489 117.128 278.231 117.128C277.164 117.128 276.268 117.085 275.543 117C274.817 116.915 274.081 116.744 273.335 116.488C272.588 116.211 271.98 115.816 271.511 115.304C271.041 114.771 270.615 114.077 270.231 113.224C269.847 112.371 269.569 111.304 269.399 110.024C269.228 108.723 269.143 107.197 269.143 105.448ZM271.511 105.448C271.511 107.517 271.607 109.16 271.799 110.376C272.012 111.592 272.407 112.531 272.983 113.192C273.58 113.853 274.263 114.28 275.031 114.472C275.799 114.664 276.865 114.76 278.231 114.76C279.297 114.76 280.172 114.696 280.855 114.568C281.537 114.419 282.156 114.163 282.711 113.8C283.265 113.416 283.692 112.872 283.991 112.168C284.289 111.464 284.513 110.579 284.663 109.512C284.812 108.424 284.887 107.069 284.887 105.448C284.887 104.381 284.855 103.432 284.791 102.6C284.727 101.747 284.652 101 284.567 100.36C284.481 99.72 284.332 99.1653 284.119 98.696C283.905 98.2053 283.713 97.8 283.543 97.48C283.372 97.16 283.116 96.8933 282.775 96.68C282.433 96.4453 282.135 96.2747 281.879 96.168C281.644 96.04 281.281 95.9547 280.791 95.912C280.321 95.848 279.927 95.816 279.607 95.816C279.287 95.7947 278.828 95.784 278.231 95.784C277.633 95.784 277.175 95.7947 276.855 95.816C276.556 95.816 276.161 95.848 275.671 95.912C275.201 95.9547 274.839 96.04 274.583 96.168C274.327 96.2747 274.028 96.4453 273.687 96.68C273.345 96.8933 273.079 97.16 272.887 97.48C272.716 97.8 272.524 98.2053 272.311 98.696C272.097 99.1653 271.937 99.72 271.831 100.36C271.745 101 271.671 101.747 271.607 102.6C271.543 103.453 271.511 104.403 271.511 105.448ZM306.768 105.448C306.768 103.656 306.864 102.099 307.056 100.776C307.248 99.432 307.546 98.3227 307.952 97.448C308.357 96.5733 308.794 95.8693 309.264 95.336C309.754 94.7813 310.373 94.3653 311.12 94.088C311.866 93.8107 312.592 93.6293 313.296 93.544C314 93.4587 314.853 93.416 315.856 93.416C316.73 93.416 317.477 93.448 318.096 93.512C318.736 93.576 319.386 93.704 320.048 93.896C320.73 94.088 321.296 94.3547 321.744 94.696C322.192 95.0373 322.629 95.5067 323.056 96.104C323.482 96.7013 323.813 97.4267 324.048 98.28C324.304 99.112 324.506 100.125 324.656 101.32C324.805 102.515 324.88 103.891 324.88 105.448C324.88 107.475 324.741 109.203 324.464 110.632C324.208 112.04 323.845 113.171 323.376 114.024C322.928 114.877 322.298 115.539 321.488 116.008C320.698 116.456 319.877 116.755 319.024 116.904C318.17 117.053 317.114 117.128 315.856 117.128C314.789 117.128 313.893 117.085 313.168 117C312.442 116.915 311.706 116.744 310.96 116.488C310.213 116.211 309.605 115.816 309.136 115.304C308.666 114.771 308.24 114.077 307.856 113.224C307.472 112.371 307.194 111.304 307.024 110.024C306.853 108.723 306.768 107.197 306.768 105.448ZM309.136 105.448C309.136 107.517 309.232 109.16 309.424 110.376C309.637 111.592 310.032 112.531 310.608 113.192C311.205 113.853 311.888 114.28 312.656 114.472C313.424 114.664 314.49 114.76 315.856 114.76C316.922 114.76 317.797 114.696 318.48 114.568C319.162 114.419 319.781 114.163 320.336 113.8C320.89 113.416 321.317 112.872 321.616 112.168C321.914 111.464 322.138 110.579 322.288 109.512C322.437 108.424 322.512 107.069 322.512 105.448C322.512 104.381 322.48 103.432 322.416 102.6C322.352 101.747 322.277 101 322.192 100.36C322.106 99.72 321.957 99.1653 321.744 98.696C321.53 98.2053 321.338 97.8 321.168 97.48C320.997 97.16 320.741 96.8933 320.4 96.68C320.058 96.4453 319.76 96.2747 319.504 96.168C319.269 96.04 318.906 95.9547 318.416 95.912C317.946 95.848 317.552 95.816 317.232 95.816C316.912 95.7947 316.453 95.784 315.856 95.784C315.258 95.784 314.8 95.7947 314.48 95.816C314.181 95.816 313.786 95.848 313.296 95.912C312.826 95.9547 312.464 96.04 312.208 96.168C311.952 96.2747 311.653 96.4453 311.312 96.68C310.97 96.8933 310.704 97.16 310.512 97.48C310.341 97.8 310.149 98.2053 309.936 98.696C309.722 99.1653 309.562 99.72 309.456 100.36C309.37 101 309.296 101.747 309.232 102.6C309.168 103.453 309.136 104.403 309.136 105.448ZM344.873 117V97.736C344.873 96.3067 345.225 95.2613 345.929 94.6C346.633 93.9173 347.539 93.576 348.649 93.576C348.691 93.576 348.734 93.576 348.777 93.576C348.819 93.576 348.862 93.576 348.905 93.576L359.017 94.088V95.944H348.905C348.393 95.944 347.998 96.0507 347.721 96.264C347.465 96.456 347.315 96.6587 347.273 96.872C347.251 97.064 347.241 97.352 347.241 97.736V104.136L357.737 104.456V106.344L347.241 106.664V117H344.873ZM378.997 96.104V94.216C378.997 93.576 379.295 93.256 379.893 93.256H381.685C382.239 93.256 382.517 93.576 382.517 94.216V97.384C382.517 98.0027 382.41 98.5253 382.197 98.952C381.962 99.3573 381.685 99.6347 381.365 99.784C380.789 100.04 380.362 100.168 380.085 100.168H379.509L379.189 100.104V98.984H379.253C379.935 98.984 380.277 98.6107 380.277 97.864V97H379.893C379.295 97 378.997 96.7013 378.997 96.104ZM402.534 95.944V93.576H418.79V95.944H411.75V117H409.382V95.944H402.534ZM437.514 117V93.576H447.498C451.103 93.576 452.906 95.9227 452.906 100.616C452.906 104.712 451.551 106.952 448.842 107.336L453.77 117H451.21L446.282 107.432L439.882 106.984V117H437.514ZM439.882 104.872H447.498C447.882 104.872 448.18 104.861 448.394 104.84C448.607 104.819 448.863 104.744 449.162 104.616C449.482 104.467 449.716 104.253 449.866 103.976C450.036 103.677 450.186 103.251 450.314 102.696C450.442 102.12 450.506 101.427 450.506 100.616C450.506 98.7387 450.228 97.5013 449.674 96.904C449.119 96.2853 448.394 95.976 447.498 95.976H439.882V104.872ZM472.003 117L480.611 93.576H482.979L491.203 117H488.387L486.371 110.472H477.027L474.915 117H472.003ZM477.891 108.104H485.539L481.763 97.192L477.891 108.104ZM509.44 93.576H512.032L518.88 113.224L526.048 93.576H528.64L520.032 117H517.664L509.44 93.576ZM547.998 113.064V97.736C547.998 96.3067 548.35 95.2613 549.054 94.6C549.758 93.9173 550.664 93.576 551.774 93.576C551.816 93.576 551.859 93.576 551.902 93.576C551.944 93.576 551.987 93.576 552.03 93.576L562.142 94.088V95.944H552.03C551.518 95.944 551.123 96.0507 550.846 96.264C550.59 96.456 550.44 96.6587 550.398 96.872C550.376 97.064 550.366 97.352 550.366 97.736V104.136L560.862 104.456V106.344L550.366 106.664V113.064C550.366 113.448 550.419 113.768 550.526 114.024C550.632 114.259 550.792 114.429 551.006 114.536C551.219 114.621 551.4 114.675 551.55 114.696C551.72 114.717 551.955 114.728 552.254 114.728C552.254 114.728 552.264 114.728 552.286 114.728C552.307 114.728 552.328 114.728 552.35 114.728H562.142V116.552L552.35 117.096C552.264 117.096 552.179 117.096 552.094 117.096C552.008 117.117 551.923 117.128 551.838 117.128C551.304 117.128 550.824 117.075 550.398 116.968C549.971 116.84 549.566 116.637 549.182 116.36C548.819 116.061 548.531 115.635 548.318 115.08C548.104 114.525 547.998 113.853 547.998 113.064ZM582.154 112.968V93.576H584.522V112.968C584.522 113.203 584.543 113.405 584.586 113.576C584.628 113.747 584.671 113.896 584.714 114.024C584.778 114.131 584.863 114.227 584.97 114.312C585.076 114.397 585.172 114.461 585.258 114.504C585.364 114.547 585.492 114.579 585.642 114.6C585.791 114.621 585.908 114.632 585.994 114.632C586.1 114.632 586.239 114.632 586.41 114.632C586.41 114.632 586.42 114.632 586.442 114.632C586.463 114.632 586.484 114.632 586.506 114.632H596.298V117H586.506C585.887 117 585.354 116.957 584.906 116.872C584.458 116.787 584.01 116.616 583.562 116.36C583.114 116.104 582.762 115.688 582.506 115.112C582.271 114.536 582.154 113.821 582.154 112.968ZM615.486 101.192V99.08C615.486 96.9253 616.041 95.4427 617.15 94.632C618.26 93.8 619.817 93.384 621.822 93.384C623.273 93.384 625.94 93.64 629.822 94.152V96.072L621.822 95.752C621.566 95.7307 621.342 95.72 621.15 95.72C620.062 95.72 619.241 95.9547 618.686 96.424C618.132 96.872 617.854 97.7573 617.854 99.08V101.192C617.854 102.515 618.11 103.368 618.622 103.752C619.156 104.136 619.988 104.328 621.118 104.328H625.662C628.99 104.328 630.654 106.163 630.654 109.832V112.008C630.654 113.096 630.473 114.003 630.11 114.728C629.748 115.453 629.236 115.997 628.574 116.36C627.913 116.701 627.241 116.936 626.558 117.064C625.876 117.192 625.086 117.256 624.19 117.256C623.444 117.256 622.121 117.16 620.222 116.968C618.345 116.776 617.001 116.605 616.19 116.456V114.536C618.537 114.771 621.204 114.888 624.19 114.888C626.921 114.888 628.286 113.928 628.286 112.008V109.832C628.286 108.829 628.094 108.061 627.71 107.528C627.326 106.973 626.644 106.696 625.662 106.696H621.182C619.966 106.696 618.953 106.547 618.142 106.248C617.353 105.949 616.777 105.512 616.414 104.936C616.052 104.36 615.806 103.795 615.678 103.24C615.55 102.664 615.486 101.981 615.486 101.192Z" fill="white"/>
<rect x="166" y="54" width="608" height="388" rx="11" stroke="#FFE600" stroke-opacity="0.59" stroke-width="2"/>
<rect x="61" y="151" width="608" height="388" rx="11" fill="url(#paint3_linear_41164_6147)"/>
<g opacity="0.6">
<path d="M226.018 349.397C228.063 347.352 229.211 344.58 229.211 341.689C229.211 338.798 228.063 336.026 226.018 333.982" stroke="white" stroke-width="5" stroke-linecap="round" stroke-linejoin="round"/>
<path d="M234.405 354.512C237.309 350.867 238.889 346.346 238.889 341.686C238.888 337.027 237.306 332.506 234.402 328.862" stroke="white" stroke-width="5" stroke-linecap="round" stroke-linejoin="round"/>
<path d="M241.799 359.555C245.689 354.442 247.803 348.199 247.822 341.775C247.841 335.35 245.762 329.095 241.903 323.959" stroke="white" stroke-width="5" stroke-linecap="round" stroke-linejoin="round"/>
<path d="M250.055 318.709C255.047 325.605 257.658 333.939 257.492 342.45C257.327 350.962 254.394 359.188 249.138 365.885" stroke="white" stroke-width="5" stroke-linecap="round" stroke-linejoin="round"/>
</g>
<rect x="125.5" y="309.55" width="84.75" height="61.4861" rx="12.5" fill="url(#paint4_linear_41164_6147)" stroke="url(#paint5_linear_41164_6147)"/>
<mask id="mask1_41164_6147" style="mask-type:alpha" maskUnits="userSpaceOnUse" x="126" y="310" width="84" height="61">
<rect x="126.5" y="310.55" width="82.75" height="59.4861" rx="11.5" fill="#DCD59E" stroke="black"/>
</mask>
<g mask="url(#mask1_41164_6147)">
<path opacity="0.5" fill-rule="evenodd" clip-rule="evenodd" d="M169.848 312.031C169.115 310.54 166.989 310.54 166.257 312.031L158.731 327.358C158.731 327.358 162.46 338.618 158.731 351.46L166.222 368.437C166.924 370.027 169.18 370.027 169.882 368.437L177.373 351.46C177.373 351.46 173.645 344.481 177.373 327.358L169.848 312.031Z" stroke="#BFB985" stroke-width="1.3" stroke-linejoin="bevel"/>
<path opacity="0.5" d="M125.176 327.277H158.495" stroke="#BFB985" stroke-width="1.3" stroke-linejoin="bevel"/>
<path opacity="0.5" d="M176.581 327.277H210.852" stroke="#BFB985" stroke-width="1.3" stroke-linejoin="bevel"/>
<path opacity="0.5" d="M125.176 351.275H158.495" stroke="#BFB985" stroke-width="1.3" stroke-linejoin="bevel"/>
<path opacity="0.5" d="M176.581 351.275H210.852" stroke="#BFB985" stroke-width="1.3" stroke-linejoin="bevel"/>
</g>
<path d="M105.955 485.545V503H103.909L94.3977 489.295H94.2273V503H92.1136V485.545H94.1591L103.705 499.284H103.875V485.545H105.955ZM124.911 494.273C124.911 496.114 124.579 497.705 123.914 499.045C123.249 500.386 122.337 501.42 121.178 502.148C120.019 502.875 118.695 503.239 117.207 503.239C115.718 503.239 114.394 502.875 113.235 502.148C112.076 501.42 111.164 500.386 110.499 499.045C109.835 497.705 109.502 496.114 109.502 494.273C109.502 492.432 109.835 490.841 110.499 489.5C111.164 488.159 112.076 487.125 113.235 486.398C114.394 485.67 115.718 485.307 117.207 485.307C118.695 485.307 120.019 485.67 121.178 486.398C122.337 487.125 123.249 488.159 123.914 489.5C124.579 490.841 124.911 492.432 124.911 494.273ZM122.866 494.273C122.866 492.761 122.613 491.486 122.107 490.446C121.607 489.406 120.928 488.619 120.07 488.085C119.218 487.551 118.263 487.284 117.207 487.284C116.15 487.284 115.192 487.551 114.335 488.085C113.482 488.619 112.803 489.406 112.298 490.446C111.798 491.486 111.548 492.761 111.548 494.273C111.548 495.784 111.798 497.06 112.298 498.099C112.803 499.139 113.482 499.926 114.335 500.46C115.192 500.994 116.15 501.261 117.207 501.261C118.263 501.261 119.218 500.994 120.07 500.46C120.928 499.926 121.607 499.139 122.107 498.099C122.613 497.06 122.866 495.784 122.866 494.273ZM128.465 485.545H130.988L136.92 500.034H137.124L143.056 485.545H145.579V503H143.602V489.739H143.431L137.977 503H136.067L130.613 489.739H130.442V503H128.465V485.545ZM149.817 503V485.545H160.351V487.42H151.93V493.318H159.805V495.193H151.93V501.125H160.487V503H149.817ZM180.456 489.909C180.354 489.045 179.939 488.375 179.212 487.898C178.484 487.42 177.592 487.182 176.536 487.182C175.763 487.182 175.087 487.307 174.507 487.557C173.933 487.807 173.484 488.151 173.161 488.588C172.842 489.026 172.683 489.523 172.683 490.08C172.683 490.545 172.794 490.946 173.016 491.281C173.243 491.611 173.533 491.886 173.885 492.108C174.237 492.324 174.607 492.503 174.993 492.645C175.379 492.781 175.734 492.892 176.058 492.977L177.831 493.455C178.286 493.574 178.791 493.739 179.348 493.949C179.911 494.159 180.447 494.446 180.959 494.81C181.476 495.168 181.902 495.628 182.237 496.19C182.572 496.753 182.74 497.443 182.74 498.261C182.74 499.205 182.493 500.057 181.999 500.818C181.51 501.58 180.794 502.185 179.851 502.634C178.913 503.082 177.774 503.307 176.433 503.307C175.183 503.307 174.101 503.105 173.186 502.702C172.277 502.298 171.561 501.736 171.038 501.014C170.521 500.293 170.229 499.455 170.161 498.5H172.342C172.399 499.159 172.621 499.705 173.007 500.136C173.399 500.562 173.893 500.881 174.49 501.091C175.092 501.295 175.74 501.398 176.433 501.398C177.24 501.398 177.964 501.267 178.607 501.006C179.249 500.739 179.757 500.369 180.132 499.898C180.507 499.42 180.695 498.864 180.695 498.227C180.695 497.648 180.533 497.176 180.209 496.812C179.885 496.449 179.459 496.153 178.93 495.926C178.402 495.699 177.831 495.5 177.217 495.33L175.07 494.716C173.706 494.324 172.626 493.764 171.831 493.037C171.036 492.31 170.638 491.358 170.638 490.182C170.638 489.205 170.902 488.352 171.43 487.625C171.964 486.892 172.68 486.324 173.578 485.92C174.482 485.511 175.49 485.307 176.604 485.307C177.729 485.307 178.729 485.509 179.604 485.912C180.479 486.31 181.172 486.855 181.683 487.548C182.2 488.241 182.473 489.028 182.501 489.909H180.456ZM200.942 494.273C200.942 496.114 200.61 497.705 199.945 499.045C199.281 500.386 198.369 501.42 197.21 502.148C196.05 502.875 194.727 503.239 193.238 503.239C191.749 503.239 190.425 502.875 189.266 502.148C188.107 501.42 187.195 500.386 186.531 499.045C185.866 497.705 185.533 496.114 185.533 494.273C185.533 492.432 185.866 490.841 186.531 489.5C187.195 488.159 188.107 487.125 189.266 486.398C190.425 485.67 191.749 485.307 193.238 485.307C194.727 485.307 196.05 485.67 197.21 486.398C198.369 487.125 199.281 488.159 199.945 489.5C200.61 490.841 200.942 492.432 200.942 494.273ZM198.897 494.273C198.897 492.761 198.644 491.486 198.138 490.446C197.638 489.406 196.96 488.619 196.102 488.085C195.249 487.551 194.295 487.284 193.238 487.284C192.181 487.284 191.224 487.551 190.366 488.085C189.513 488.619 188.835 489.406 188.329 490.446C187.829 491.486 187.579 492.761 187.579 494.273C187.579 495.784 187.829 497.06 188.329 498.099C188.835 499.139 189.513 499.926 190.366 500.46C191.224 500.994 192.181 501.261 193.238 501.261C194.295 501.261 195.249 500.994 196.102 500.46C196.96 499.926 197.638 499.139 198.138 498.099C198.644 497.06 198.897 495.784 198.897 494.273ZM204.496 503V485.545H210.599C211.815 485.545 212.817 485.756 213.607 486.176C214.397 486.591 214.985 487.151 215.371 487.855C215.758 488.554 215.951 489.33 215.951 490.182C215.951 490.932 215.817 491.551 215.55 492.04C215.289 492.528 214.942 492.915 214.511 493.199C214.085 493.483 213.621 493.693 213.121 493.83V494C213.656 494.034 214.192 494.222 214.732 494.562C215.272 494.903 215.724 495.392 216.087 496.028C216.451 496.665 216.633 497.443 216.633 498.364C216.633 499.239 216.434 500.026 216.036 500.724C215.638 501.423 215.011 501.977 214.153 502.386C213.295 502.795 212.178 503 210.803 503H204.496ZM206.61 501.125H210.803C212.184 501.125 213.164 500.858 213.744 500.324C214.329 499.784 214.621 499.131 214.621 498.364C214.621 497.773 214.471 497.227 214.17 496.727C213.869 496.222 213.44 495.818 212.883 495.517C212.326 495.21 211.667 495.057 210.906 495.057H206.61V501.125ZM206.61 493.216H210.531C211.167 493.216 211.741 493.091 212.252 492.841C212.769 492.591 213.178 492.239 213.479 491.784C213.786 491.33 213.94 490.795 213.94 490.182C213.94 489.415 213.673 488.764 213.138 488.23C212.604 487.69 211.758 487.42 210.599 487.42H206.61V493.216ZM220.106 503V485.545H226.004C227.367 485.545 228.487 485.778 229.362 486.244C230.237 486.705 230.884 487.338 231.305 488.145C231.725 488.952 231.935 489.869 231.935 490.898C231.935 491.926 231.725 492.838 231.305 493.634C230.884 494.429 230.239 495.054 229.37 495.509C228.501 495.957 227.39 496.182 226.038 496.182H221.265V494.273H225.969C226.901 494.273 227.651 494.136 228.219 493.864C228.793 493.591 229.208 493.205 229.464 492.705C229.725 492.199 229.856 491.597 229.856 490.898C229.856 490.199 229.725 489.588 229.464 489.065C229.202 488.543 228.785 488.139 228.211 487.855C227.637 487.565 226.879 487.42 225.935 487.42H222.219V503H220.106ZM228.322 495.159L232.617 503H230.163L225.935 495.159H228.322ZM235.457 503V485.545H245.991V487.42H237.571V493.318H245.446V495.193H237.571V501.125H246.128V503H235.457ZM263.642 485.545V503H261.597L252.085 489.295H251.915V503H249.801V485.545H251.847L261.392 499.284H261.562V485.545H263.642ZM282.599 494.273C282.599 496.114 282.266 497.705 281.602 499.045C280.937 500.386 280.025 501.42 278.866 502.148C277.707 502.875 276.383 503.239 274.894 503.239C273.406 503.239 272.082 502.875 270.923 502.148C269.763 501.42 268.852 500.386 268.187 499.045C267.522 497.705 267.19 496.114 267.19 494.273C267.19 492.432 267.522 490.841 268.187 489.5C268.852 488.159 269.763 487.125 270.923 486.398C272.082 485.67 273.406 485.307 274.894 485.307C276.383 485.307 277.707 485.67 278.866 486.398C280.025 487.125 280.937 488.159 281.602 489.5C282.266 490.841 282.599 492.432 282.599 494.273ZM280.553 494.273C280.553 492.761 280.3 491.486 279.795 490.446C279.295 489.406 278.616 488.619 277.758 488.085C276.906 487.551 275.951 487.284 274.894 487.284C273.837 487.284 272.88 487.551 272.022 488.085C271.17 488.619 270.491 489.406 269.985 490.446C269.485 491.486 269.235 492.761 269.235 494.273C269.235 495.784 269.485 497.06 269.985 498.099C270.491 499.139 271.17 499.926 272.022 500.46C272.88 500.994 273.837 501.261 274.894 501.261C275.951 501.261 276.906 500.994 277.758 500.46C278.616 499.926 279.295 499.139 279.795 498.099C280.3 497.06 280.553 495.784 280.553 494.273ZM286.153 485.545H288.675L294.607 500.034H294.812L300.744 485.545H303.266V503H301.289V489.739H301.119L295.664 503H293.755L288.3 489.739H288.13V503H286.153V485.545ZM307.504 503V485.545H318.038V487.42H309.618V493.318H317.493V495.193H309.618V501.125H318.175V503H307.504Z" fill="white"/>
<path d="M91.76 202.16C91.76 200.389 91.856 198.864 92.048 197.584C92.24 196.283 92.592 195.056 93.104 193.904C93.616 192.731 94.384 191.845 95.408 191.248C96.432 190.629 97.712 190.32 99.248 190.32C100.08 190.32 101.36 190.416 103.088 190.608C104.837 190.779 106.267 190.971 107.376 191.184V193.072C107.355 193.072 107.152 193.061 106.768 193.04C106.405 193.019 105.925 192.987 105.328 192.944C104.752 192.901 104.123 192.859 103.44 192.816C102.757 192.773 102.032 192.741 101.264 192.72C100.517 192.699 99.8453 192.688 99.248 192.688C97.2213 192.688 95.856 193.424 95.152 194.896C94.4693 196.347 94.128 198.789 94.128 202.224C94.128 205.787 94.512 208.272 95.28 209.68C96.048 211.088 97.4133 211.803 99.376 211.824C99.3973 211.824 99.4187 211.824 99.44 211.824C99.9093 211.824 100.432 211.781 101.008 211.696C101.584 211.589 102.128 211.461 102.64 211.312C103.152 211.163 103.632 211.013 104.08 210.864C104.528 210.715 104.88 210.597 105.136 210.512L105.52 210.352V203.952H100.144V202.352C102.085 201.819 103.941 201.552 105.712 201.552C106.395 201.552 107.12 201.584 107.888 201.648V214H106.096L105.584 212.432C103.493 213.584 101.424 214.16 99.376 214.16C99.3333 214.16 99.2907 214.16 99.248 214.16C97.9893 214.16 96.9013 213.957 95.984 213.552C95.0667 213.125 94.3413 212.581 93.808 211.92C93.2747 211.237 92.848 210.363 92.528 209.296C92.208 208.208 91.9947 207.12 91.888 206.032C91.8027 204.944 91.76 203.653 91.76 202.16ZM128.216 214V190.576H130.584V201.488H141.784V190.576H144.152V214H141.784V203.856H130.584V214H128.216ZM164.143 202.448C164.143 200.656 164.239 199.099 164.431 197.776C164.623 196.432 164.921 195.323 165.327 194.448C165.732 193.573 166.169 192.869 166.639 192.336C167.129 191.781 167.748 191.365 168.495 191.088C169.241 190.811 169.967 190.629 170.671 190.544C171.375 190.459 172.228 190.416 173.231 190.416C174.105 190.416 174.852 190.448 175.471 190.512C176.111 190.576 176.761 190.704 177.423 190.896C178.105 191.088 178.671 191.355 179.119 191.696C179.567 192.037 180.004 192.507 180.431 193.104C180.857 193.701 181.188 194.427 181.423 195.28C181.679 196.112 181.881 197.125 182.031 198.32C182.18 199.515 182.255 200.891 182.255 202.448C182.255 204.475 182.116 206.203 181.839 207.632C181.583 209.04 181.22 210.171 180.751 211.024C180.303 211.877 179.673 212.539 178.863 213.008C178.073 213.456 177.252 213.755 176.399 213.904C175.545 214.053 174.489 214.128 173.231 214.128C172.164 214.128 171.268 214.085 170.543 214C169.817 213.915 169.081 213.744 168.335 213.488C167.588 213.211 166.98 212.816 166.511 212.304C166.041 211.771 165.615 211.077 165.231 210.224C164.847 209.371 164.569 208.304 164.399 207.024C164.228 205.723 164.143 204.197 164.143 202.448ZM166.511 202.448C166.511 204.517 166.607 206.16 166.799 207.376C167.012 208.592 167.407 209.531 167.983 210.192C168.58 210.853 169.263 211.28 170.031 211.472C170.799 211.664 171.865 211.76 173.231 211.76C174.297 211.76 175.172 211.696 175.855 211.568C176.537 211.419 177.156 211.163 177.711 210.8C178.265 210.416 178.692 209.872 178.991 209.168C179.289 208.464 179.513 207.579 179.663 206.512C179.812 205.424 179.887 204.069 179.887 202.448C179.887 201.381 179.855 200.432 179.791 199.6C179.727 198.747 179.652 198 179.567 197.36C179.481 196.72 179.332 196.165 179.119 195.696C178.905 195.205 178.713 194.8 178.543 194.48C178.372 194.16 178.116 193.893 177.775 193.68C177.433 193.445 177.135 193.275 176.879 193.168C176.644 193.04 176.281 192.955 175.791 192.912C175.321 192.848 174.927 192.816 174.607 192.816C174.287 192.795 173.828 192.784 173.231 192.784C172.633 192.784 172.175 192.795 171.855 192.816C171.556 192.816 171.161 192.848 170.671 192.912C170.201 192.955 169.839 193.04 169.583 193.168C169.327 193.275 169.028 193.445 168.687 193.68C168.345 193.893 168.079 194.16 167.887 194.48C167.716 194.8 167.524 195.205 167.311 195.696C167.097 196.165 166.937 196.72 166.831 197.36C166.745 198 166.671 198.747 166.607 199.6C166.543 200.453 166.511 201.403 166.511 202.448ZM201.768 202.448C201.768 200.656 201.864 199.099 202.056 197.776C202.248 196.432 202.546 195.323 202.952 194.448C203.357 193.573 203.794 192.869 204.264 192.336C204.754 191.781 205.373 191.365 206.12 191.088C206.866 190.811 207.592 190.629 208.296 190.544C209 190.459 209.853 190.416 210.856 190.416C211.73 190.416 212.477 190.448 213.096 190.512C213.736 190.576 214.386 190.704 215.048 190.896C215.73 191.088 216.296 191.355 216.744 191.696C217.192 192.037 217.629 192.507 218.056 193.104C218.482 193.701 218.813 194.427 219.048 195.28C219.304 196.112 219.506 197.125 219.656 198.32C219.805 199.515 219.88 200.891 219.88 202.448C219.88 204.475 219.741 206.203 219.464 207.632C219.208 209.04 218.845 210.171 218.376 211.024C217.928 211.877 217.298 212.539 216.488 213.008C215.698 213.456 214.877 213.755 214.024 213.904C213.17 214.053 212.114 214.128 210.856 214.128C209.789 214.128 208.893 214.085 208.168 214C207.442 213.915 206.706 213.744 205.96 213.488C205.213 213.211 204.605 212.816 204.136 212.304C203.666 211.771 203.24 211.077 202.856 210.224C202.472 209.371 202.194 208.304 202.024 207.024C201.853 205.723 201.768 204.197 201.768 202.448ZM204.136 202.448C204.136 204.517 204.232 206.16 204.424 207.376C204.637 208.592 205.032 209.531 205.608 210.192C206.205 210.853 206.888 211.28 207.656 211.472C208.424 211.664 209.49 211.76 210.856 211.76C211.922 211.76 212.797 211.696 213.48 211.568C214.162 211.419 214.781 211.163 215.336 210.8C215.89 210.416 216.317 209.872 216.616 209.168C216.914 208.464 217.138 207.579 217.288 206.512C217.437 205.424 217.512 204.069 217.512 202.448C217.512 201.381 217.48 200.432 217.416 199.6C217.352 198.747 217.277 198 217.192 197.36C217.106 196.72 216.957 196.165 216.744 195.696C216.53 195.205 216.338 194.8 216.168 194.48C215.997 194.16 215.741 193.893 215.4 193.68C215.058 193.445 214.76 193.275 214.504 193.168C214.269 193.04 213.906 192.955 213.416 192.912C212.946 192.848 212.552 192.816 212.232 192.816C211.912 192.795 211.453 192.784 210.856 192.784C210.258 192.784 209.8 192.795 209.48 192.816C209.181 192.816 208.786 192.848 208.296 192.912C207.826 192.955 207.464 193.04 207.208 193.168C206.952 193.275 206.653 193.445 206.312 193.68C205.97 193.893 205.704 194.16 205.512 194.48C205.341 194.8 205.149 195.205 204.936 195.696C204.722 196.165 204.562 196.72 204.456 197.36C204.37 198 204.296 198.747 204.232 199.6C204.168 200.453 204.136 201.403 204.136 202.448ZM239.873 214V194.736C239.873 193.307 240.225 192.261 240.929 191.6C241.633 190.917 242.539 190.576 243.649 190.576C243.691 190.576 243.734 190.576 243.777 190.576C243.819 190.576 243.862 190.576 243.905 190.576L254.017 191.088V192.944H243.905C243.393 192.944 242.998 193.051 242.721 193.264C242.465 193.456 242.315 193.659 242.273 193.872C242.251 194.064 242.241 194.352 242.241 194.736V201.136L252.737 201.456V203.344L242.241 203.664V214H239.873ZM273.997 193.104V191.216C273.997 190.576 274.295 190.256 274.893 190.256H276.685C277.239 190.256 277.517 190.576 277.517 191.216V194.384C277.517 195.003 277.41 195.525 277.197 195.952C276.962 196.357 276.685 196.635 276.365 196.784C275.789 197.04 275.362 197.168 275.085 197.168H274.509L274.189 197.104V195.984H274.253C274.935 195.984 275.277 195.611 275.277 194.864V194H274.893C274.295 194 273.997 193.701 273.997 193.104ZM297.534 192.944V190.576H313.79V192.944H306.75V214H304.382V192.944H297.534ZM332.514 214V190.576H342.498C346.103 190.576 347.906 192.923 347.906 197.616C347.906 201.712 346.551 203.952 343.842 204.336L348.77 214H346.21L341.282 204.432L334.882 203.984V214H332.514ZM334.882 201.872H342.498C342.882 201.872 343.18 201.861 343.394 201.84C343.607 201.819 343.863 201.744 344.162 201.616C344.482 201.467 344.716 201.253 344.866 200.976C345.036 200.677 345.186 200.251 345.314 199.696C345.442 199.12 345.506 198.427 345.506 197.616C345.506 195.739 345.228 194.501 344.674 193.904C344.119 193.285 343.394 192.976 342.498 192.976H334.882V201.872ZM367.003 214L375.611 190.576H377.979L386.203 214H383.387L381.371 207.472H372.027L369.915 214H367.003ZM372.891 205.104H380.539L376.763 194.192L372.891 205.104ZM404.44 190.576H407.032L413.88 210.224L421.048 190.576H423.64L415.032 214H412.664L404.44 190.576ZM442.998 210.064V194.736C442.998 193.307 443.35 192.261 444.054 191.6C444.758 190.917 445.664 190.576 446.774 190.576C446.816 190.576 446.859 190.576 446.902 190.576C446.944 190.576 446.987 190.576 447.03 190.576L457.142 191.088V192.944H447.03C446.518 192.944 446.123 193.051 445.846 193.264C445.59 193.456 445.44 193.659 445.398 193.872C445.376 194.064 445.366 194.352 445.366 194.736V201.136L455.862 201.456V203.344L445.366 203.664V210.064C445.366 210.448 445.419 210.768 445.526 211.024C445.632 211.259 445.792 211.429 446.006 211.536C446.219 211.621 446.4 211.675 446.55 211.696C446.72 211.717 446.955 211.728 447.254 211.728C447.254 211.728 447.264 211.728 447.286 211.728C447.307 211.728 447.328 211.728 447.35 211.728H457.142V213.552L447.35 214.096C447.264 214.096 447.179 214.096 447.094 214.096C447.008 214.117 446.923 214.128 446.838 214.128C446.304 214.128 445.824 214.075 445.398 213.968C444.971 213.84 444.566 213.637 444.182 213.36C443.819 213.061 443.531 212.635 443.318 212.08C443.104 211.525 442.998 210.853 442.998 210.064ZM477.154 209.968V190.576H479.522V209.968C479.522 210.203 479.543 210.405 479.586 210.576C479.628 210.747 479.671 210.896 479.714 211.024C479.778 211.131 479.863 211.227 479.97 211.312C480.076 211.397 480.172 211.461 480.258 211.504C480.364 211.547 480.492 211.579 480.642 211.6C480.791 211.621 480.908 211.632 480.994 211.632C481.1 211.632 481.239 211.632 481.41 211.632C481.41 211.632 481.42 211.632 481.442 211.632C481.463 211.632 481.484 211.632 481.506 211.632H491.298V214H481.506C480.887 214 480.354 213.957 479.906 213.872C479.458 213.787 479.01 213.616 478.562 213.36C478.114 213.104 477.762 212.688 477.506 212.112C477.271 211.536 477.154 210.821 477.154 209.968ZM510.486 198.192V196.08C510.486 193.925 511.041 192.443 512.15 191.632C513.26 190.8 514.817 190.384 516.822 190.384C518.273 190.384 520.94 190.64 524.822 191.152V193.072L516.822 192.752C516.566 192.731 516.342 192.72 516.15 192.72C515.062 192.72 514.241 192.955 513.686 193.424C513.132 193.872 512.854 194.757 512.854 196.08V198.192C512.854 199.515 513.11 200.368 513.622 200.752C514.156 201.136 514.988 201.328 516.118 201.328H520.662C523.99 201.328 525.654 203.163 525.654 206.832V209.008C525.654 210.096 525.473 211.003 525.11 211.728C524.748 212.453 524.236 212.997 523.574 213.36C522.913 213.701 522.241 213.936 521.558 214.064C520.876 214.192 520.086 214.256 519.19 214.256C518.444 214.256 517.121 214.16 515.222 213.968C513.345 213.776 512.001 213.605 511.19 213.456V211.536C513.537 211.771 516.204 211.888 519.19 211.888C521.921 211.888 523.286 210.928 523.286 209.008V206.832C523.286 205.829 523.094 205.061 522.71 204.528C522.326 203.973 521.644 203.696 520.662 203.696H516.182C514.966 203.696 513.953 203.547 513.142 203.248C512.353 202.949 511.777 202.512 511.414 201.936C511.052 201.36 510.806 200.795 510.678 200.24C510.55 199.664 510.486 198.981 510.486 198.192Z" fill="white"/>
<rect x="61" y="151" width="608" height="388" rx="11" stroke="#910082" stroke-width="2"/>
<rect x="0.5" y="248.5" width="609" height="389" rx="11.5" fill="url(#paint6_linear_41164_6147)"/>
<g opacity="0.6">
<path d="M166.018 447.397C168.063 445.352 169.211 442.58 169.211 439.689C169.211 436.798 168.063 434.026 166.018 431.982" stroke="white" stroke-width="5" stroke-linecap="round" stroke-linejoin="round"/>
<path d="M174.405 452.512C177.309 448.867 178.889 444.346 178.889 439.686C178.888 435.027 177.306 430.506 174.402 426.862" stroke="white" stroke-width="5" stroke-linecap="round" stroke-linejoin="round"/>
<path d="M181.799 457.555C185.689 452.442 187.803 446.199 187.822 439.775C187.841 433.35 185.762 427.095 181.903 421.959" stroke="white" stroke-width="5" stroke-linecap="round" stroke-linejoin="round"/>
<path d="M190.055 416.709C195.047 423.605 197.658 431.939 197.492 440.45C197.327 448.962 194.394 457.188 189.138 463.885" stroke="white" stroke-width="5" stroke-linecap="round" stroke-linejoin="round"/>
</g>
<rect x="65.5" y="407.55" width="84.75" height="61.4861" rx="12.5" fill="url(#paint7_linear_41164_6147)" stroke="url(#paint8_linear_41164_6147)"/>
<mask id="mask2_41164_6147" style="mask-type:alpha" maskUnits="userSpaceOnUse" x="66" y="408" width="84" height="61">
<rect x="66.5" y="408.55" width="82.75" height="59.4861" rx="11.5" fill="#DCD59E" stroke="black"/>
</mask>
<g mask="url(#mask2_41164_6147)">
<path opacity="0.5" fill-rule="evenodd" clip-rule="evenodd" d="M109.848 410.031C109.115 408.54 106.989 408.54 106.257 410.031L98.7314 425.358C98.7314 425.358 102.46 436.618 98.7314 449.46L106.222 466.437C106.924 468.027 109.18 468.027 109.882 466.437L117.373 449.46C117.373 449.46 113.645 442.481 117.373 425.358L109.848 410.031Z" stroke="#BFB985" stroke-width="1.3" stroke-linejoin="bevel"/>
<path opacity="0.5" d="M65.1763 425.277H98.4949" stroke="#BFB985" stroke-width="1.3" stroke-linejoin="bevel"/>
<path opacity="0.5" d="M116.581 425.277H150.852" stroke="#BFB985" stroke-width="1.3" stroke-linejoin="bevel"/>
<path opacity="0.5" d="M65.1763 449.275H98.4949" stroke="#BFB985" stroke-width="1.3" stroke-linejoin="bevel"/>
<path opacity="0.5" d="M116.581 449.275H150.852" stroke="#BFB985" stroke-width="1.3" stroke-linejoin="bevel"/>
</g>
<path d="M45.9545 583.545V601H43.9091L34.3977 587.295H34.2273V601H32.1136V583.545H34.1591L43.7045 597.284H43.875V583.545H45.9545ZM64.9112 592.273C64.9112 594.114 64.5788 595.705 63.9141 597.045C63.2493 598.386 62.3374 599.42 61.1783 600.148C60.0192 600.875 58.6953 601.239 57.2067 601.239C55.718 601.239 54.3942 600.875 53.2351 600.148C52.076 599.42 51.1641 598.386 50.4993 597.045C49.8345 595.705 49.5021 594.114 49.5021 592.273C49.5021 590.432 49.8345 588.841 50.4993 587.5C51.1641 586.159 52.076 585.125 53.2351 584.398C54.3942 583.67 55.718 583.307 57.2067 583.307C58.6953 583.307 60.0192 583.67 61.1783 584.398C62.3374 585.125 63.2493 586.159 63.9141 587.5C64.5788 588.841 64.9112 590.432 64.9112 592.273ZM62.8658 592.273C62.8658 590.761 62.6129 589.486 62.1072 588.446C61.6072 587.406 60.9283 586.619 60.0703 586.085C59.218 585.551 58.2635 585.284 57.2067 585.284C56.1499 585.284 55.1925 585.551 54.3345 586.085C53.4822 586.619 52.8033 587.406 52.2976 588.446C51.7976 589.486 51.5476 590.761 51.5476 592.273C51.5476 593.784 51.7976 595.06 52.2976 596.099C52.8033 597.139 53.4822 597.926 54.3345 598.46C55.1925 598.994 56.1499 599.261 57.2067 599.261C58.2635 599.261 59.218 598.994 60.0703 598.46C60.9283 597.926 61.6072 597.139 62.1072 596.099C62.6129 595.06 62.8658 593.784 62.8658 592.273ZM68.4652 583.545H70.9879L76.9197 598.034H77.1243L83.0561 583.545H85.5788V601H83.6016V587.739H83.4311L77.9766 601H76.0675L70.6129 587.739H70.4425V601H68.4652V583.545ZM89.8168 601V583.545H100.351V585.42H91.9304V591.318H99.8054V593.193H91.9304V599.125H100.487V601H89.8168ZM120.456 587.909C120.354 587.045 119.939 586.375 119.212 585.898C118.484 585.42 117.592 585.182 116.536 585.182C115.763 585.182 115.087 585.307 114.507 585.557C113.933 585.807 113.484 586.151 113.161 586.588C112.842 587.026 112.683 587.523 112.683 588.08C112.683 588.545 112.794 588.946 113.016 589.281C113.243 589.611 113.533 589.886 113.885 590.108C114.237 590.324 114.607 590.503 114.993 590.645C115.379 590.781 115.734 590.892 116.058 590.977L117.831 591.455C118.286 591.574 118.791 591.739 119.348 591.949C119.911 592.159 120.447 592.446 120.959 592.81C121.476 593.168 121.902 593.628 122.237 594.19C122.572 594.753 122.74 595.443 122.74 596.261C122.74 597.205 122.493 598.057 121.999 598.818C121.51 599.58 120.794 600.185 119.851 600.634C118.913 601.082 117.774 601.307 116.433 601.307C115.183 601.307 114.101 601.105 113.186 600.702C112.277 600.298 111.561 599.736 111.038 599.014C110.521 598.293 110.229 597.455 110.161 596.5H112.342C112.399 597.159 112.621 597.705 113.007 598.136C113.399 598.562 113.893 598.881 114.49 599.091C115.092 599.295 115.74 599.398 116.433 599.398C117.24 599.398 117.964 599.267 118.607 599.006C119.249 598.739 119.757 598.369 120.132 597.898C120.507 597.42 120.695 596.864 120.695 596.227C120.695 595.648 120.533 595.176 120.209 594.812C119.885 594.449 119.459 594.153 118.93 593.926C118.402 593.699 117.831 593.5 117.217 593.33L115.07 592.716C113.706 592.324 112.626 591.764 111.831 591.037C111.036 590.31 110.638 589.358 110.638 588.182C110.638 587.205 110.902 586.352 111.43 585.625C111.964 584.892 112.68 584.324 113.578 583.92C114.482 583.511 115.49 583.307 116.604 583.307C117.729 583.307 118.729 583.509 119.604 583.912C120.479 584.31 121.172 584.855 121.683 585.548C122.2 586.241 122.473 587.028 122.501 587.909H120.456ZM140.942 592.273C140.942 594.114 140.61 595.705 139.945 597.045C139.281 598.386 138.369 599.42 137.21 600.148C136.05 600.875 134.727 601.239 133.238 601.239C131.749 601.239 130.425 600.875 129.266 600.148C128.107 599.42 127.195 598.386 126.531 597.045C125.866 595.705 125.533 594.114 125.533 592.273C125.533 590.432 125.866 588.841 126.531 587.5C127.195 586.159 128.107 585.125 129.266 584.398C130.425 583.67 131.749 583.307 133.238 583.307C134.727 583.307 136.05 583.67 137.21 584.398C138.369 585.125 139.281 586.159 139.945 587.5C140.61 588.841 140.942 590.432 140.942 592.273ZM138.897 592.273C138.897 590.761 138.644 589.486 138.138 588.446C137.638 587.406 136.96 586.619 136.102 586.085C135.249 585.551 134.295 585.284 133.238 585.284C132.181 585.284 131.224 585.551 130.366 586.085C129.513 586.619 128.835 587.406 128.329 588.446C127.829 589.486 127.579 590.761 127.579 592.273C127.579 593.784 127.829 595.06 128.329 596.099C128.835 597.139 129.513 597.926 130.366 598.46C131.224 598.994 132.181 599.261 133.238 599.261C134.295 599.261 135.249 598.994 136.102 598.46C136.96 597.926 137.638 597.139 138.138 596.099C138.644 595.06 138.897 593.784 138.897 592.273ZM144.496 601V583.545H150.599C151.815 583.545 152.817 583.756 153.607 584.176C154.397 584.591 154.985 585.151 155.371 585.855C155.758 586.554 155.951 587.33 155.951 588.182C155.951 588.932 155.817 589.551 155.55 590.04C155.289 590.528 154.942 590.915 154.511 591.199C154.085 591.483 153.621 591.693 153.121 591.83V592C153.656 592.034 154.192 592.222 154.732 592.562C155.272 592.903 155.724 593.392 156.087 594.028C156.451 594.665 156.633 595.443 156.633 596.364C156.633 597.239 156.434 598.026 156.036 598.724C155.638 599.423 155.011 599.977 154.153 600.386C153.295 600.795 152.178 601 150.803 601H144.496ZM146.61 599.125H150.803C152.184 599.125 153.164 598.858 153.744 598.324C154.329 597.784 154.621 597.131 154.621 596.364C154.621 595.773 154.471 595.227 154.17 594.727C153.869 594.222 153.44 593.818 152.883 593.517C152.326 593.21 151.667 593.057 150.906 593.057H146.61V599.125ZM146.61 591.216H150.531C151.167 591.216 151.741 591.091 152.252 590.841C152.769 590.591 153.178 590.239 153.479 589.784C153.786 589.33 153.94 588.795 153.94 588.182C153.94 587.415 153.673 586.764 153.138 586.23C152.604 585.69 151.758 585.42 150.599 585.42H146.61V591.216ZM160.106 601V583.545H166.004C167.367 583.545 168.487 583.778 169.362 584.244C170.237 584.705 170.884 585.338 171.305 586.145C171.725 586.952 171.935 587.869 171.935 588.898C171.935 589.926 171.725 590.838 171.305 591.634C170.884 592.429 170.239 593.054 169.37 593.509C168.501 593.957 167.39 594.182 166.038 594.182H161.265V592.273H165.969C166.901 592.273 167.651 592.136 168.219 591.864C168.793 591.591 169.208 591.205 169.464 590.705C169.725 590.199 169.856 589.597 169.856 588.898C169.856 588.199 169.725 587.588 169.464 587.065C169.202 586.543 168.785 586.139 168.211 585.855C167.637 585.565 166.879 585.42 165.935 585.42H162.219V601H160.106ZM168.322 593.159L172.617 601H170.163L165.935 593.159H168.322ZM175.457 601V583.545H185.991V585.42H177.571V591.318H185.446V593.193H177.571V599.125H186.128V601H175.457ZM203.642 583.545V601H201.597L192.085 587.295H191.915V601H189.801V583.545H191.847L201.392 597.284H201.562V583.545H203.642ZM222.599 592.273C222.599 594.114 222.266 595.705 221.602 597.045C220.937 598.386 220.025 599.42 218.866 600.148C217.707 600.875 216.383 601.239 214.894 601.239C213.406 601.239 212.082 600.875 210.923 600.148C209.763 599.42 208.852 598.386 208.187 597.045C207.522 595.705 207.19 594.114 207.19 592.273C207.19 590.432 207.522 588.841 208.187 587.5C208.852 586.159 209.763 585.125 210.923 584.398C212.082 583.67 213.406 583.307 214.894 583.307C216.383 583.307 217.707 583.67 218.866 584.398C220.025 585.125 220.937 586.159 221.602 587.5C222.266 588.841 222.599 590.432 222.599 592.273ZM220.553 592.273C220.553 590.761 220.3 589.486 219.795 588.446C219.295 587.406 218.616 586.619 217.758 586.085C216.906 585.551 215.951 585.284 214.894 585.284C213.837 585.284 212.88 585.551 212.022 586.085C211.17 586.619 210.491 587.406 209.985 588.446C209.485 589.486 209.235 590.761 209.235 592.273C209.235 593.784 209.485 595.06 209.985 596.099C210.491 597.139 211.17 597.926 212.022 598.46C212.88 598.994 213.837 599.261 214.894 599.261C215.951 599.261 216.906 598.994 217.758 598.46C218.616 597.926 219.295 597.139 219.795 596.099C220.3 595.06 220.553 593.784 220.553 592.273ZM226.153 583.545H228.675L234.607 598.034H234.812L240.744 583.545H243.266V601H241.289V587.739H241.119L235.664 601H233.755L228.3 587.739H228.13V601H226.153V583.545ZM247.504 601V583.545H258.038V585.42H249.618V591.318H257.493V593.193H249.618V599.125H258.175V601H247.504Z" fill="white"/>
<path d="M31.76 300.16C31.76 298.389 31.856 296.864 32.048 295.584C32.24 294.283 32.592 293.056 33.104 291.904C33.616 290.731 34.384 289.845 35.408 289.248C36.432 288.629 37.712 288.32 39.248 288.32C40.08 288.32 41.36 288.416 43.088 288.608C44.8373 288.779 46.2667 288.971 47.376 289.184V291.072C47.3547 291.072 47.152 291.061 46.768 291.04C46.4053 291.019 45.9253 290.987 45.328 290.944C44.752 290.901 44.1227 290.859 43.44 290.816C42.7573 290.773 42.032 290.741 41.264 290.72C40.5173 290.699 39.8453 290.688 39.248 290.688C37.2213 290.688 35.856 291.424 35.152 292.896C34.4693 294.347 34.128 296.789 34.128 300.224C34.128 303.787 34.512 306.272 35.28 307.68C36.048 309.088 37.4133 309.803 39.376 309.824C39.3973 309.824 39.4187 309.824 39.44 309.824C39.9093 309.824 40.432 309.781 41.008 309.696C41.584 309.589 42.128 309.461 42.64 309.312C43.152 309.163 43.632 309.013 44.08 308.864C44.528 308.715 44.88 308.597 45.136 308.512L45.52 308.352V301.952H40.144V300.352C42.0853 299.819 43.9413 299.552 45.712 299.552C46.3947 299.552 47.12 299.584 47.888 299.648V312H46.096L45.584 310.432C43.4933 311.584 41.424 312.16 39.376 312.16C39.3333 312.16 39.2907 312.16 39.248 312.16C37.9893 312.16 36.9013 311.957 35.984 311.552C35.0667 311.125 34.3413 310.581 33.808 309.92C33.2747 309.237 32.848 308.363 32.528 307.296C32.208 306.208 31.9947 305.12 31.888 304.032C31.8027 302.944 31.76 301.653 31.76 300.16ZM68.2163 312V288.576H70.5843V299.488H81.7843V288.576H84.1523V312H81.7843V301.856H70.5843V312H68.2163ZM104.143 300.448C104.143 298.656 104.239 297.099 104.431 295.776C104.623 294.432 104.921 293.323 105.327 292.448C105.732 291.573 106.169 290.869 106.639 290.336C107.129 289.781 107.748 289.365 108.495 289.088C109.241 288.811 109.967 288.629 110.671 288.544C111.375 288.459 112.228 288.416 113.231 288.416C114.105 288.416 114.852 288.448 115.471 288.512C116.111 288.576 116.761 288.704 117.423 288.896C118.105 289.088 118.671 289.355 119.119 289.696C119.567 290.037 120.004 290.507 120.431 291.104C120.857 291.701 121.188 292.427 121.423 293.28C121.679 294.112 121.881 295.125 122.031 296.32C122.18 297.515 122.255 298.891 122.255 300.448C122.255 302.475 122.116 304.203 121.839 305.632C121.583 307.04 121.22 308.171 120.751 309.024C120.303 309.877 119.673 310.539 118.863 311.008C118.073 311.456 117.252 311.755 116.399 311.904C115.545 312.053 114.489 312.128 113.231 312.128C112.164 312.128 111.268 312.085 110.543 312C109.817 311.915 109.081 311.744 108.335 311.488C107.588 311.211 106.98 310.816 106.511 310.304C106.041 309.771 105.615 309.077 105.231 308.224C104.847 307.371 104.569 306.304 104.399 305.024C104.228 303.723 104.143 302.197 104.143 300.448ZM106.511 300.448C106.511 302.517 106.607 304.16 106.799 305.376C107.012 306.592 107.407 307.531 107.983 308.192C108.58 308.853 109.263 309.28 110.031 309.472C110.799 309.664 111.865 309.76 113.231 309.76C114.297 309.76 115.172 309.696 115.855 309.568C116.537 309.419 117.156 309.163 117.711 308.8C118.265 308.416 118.692 307.872 118.991 307.168C119.289 306.464 119.513 305.579 119.663 304.512C119.812 303.424 119.887 302.069 119.887 300.448C119.887 299.381 119.855 298.432 119.791 297.6C119.727 296.747 119.652 296 119.567 295.36C119.481 294.72 119.332 294.165 119.119 293.696C118.905 293.205 118.713 292.8 118.543 292.48C118.372 292.16 118.116 291.893 117.775 291.68C117.433 291.445 117.135 291.275 116.879 291.168C116.644 291.04 116.281 290.955 115.791 290.912C115.321 290.848 114.927 290.816 114.607 290.816C114.287 290.795 113.828 290.784 113.231 290.784C112.633 290.784 112.175 290.795 111.855 290.816C111.556 290.816 111.161 290.848 110.671 290.912C110.201 290.955 109.839 291.04 109.583 291.168C109.327 291.275 109.028 291.445 108.687 291.68C108.345 291.893 108.079 292.16 107.887 292.48C107.716 292.8 107.524 293.205 107.311 293.696C107.097 294.165 106.937 294.72 106.831 295.36C106.745 296 106.671 296.747 106.607 297.6C106.543 298.453 106.511 299.403 106.511 300.448ZM141.768 300.448C141.768 298.656 141.864 297.099 142.056 295.776C142.248 294.432 142.546 293.323 142.952 292.448C143.357 291.573 143.794 290.869 144.264 290.336C144.754 289.781 145.373 289.365 146.12 289.088C146.866 288.811 147.592 288.629 148.296 288.544C149 288.459 149.853 288.416 150.856 288.416C151.73 288.416 152.477 288.448 153.096 288.512C153.736 288.576 154.386 288.704 155.048 288.896C155.73 289.088 156.296 289.355 156.744 289.696C157.192 290.037 157.629 290.507 158.056 291.104C158.482 291.701 158.813 292.427 159.048 293.28C159.304 294.112 159.506 295.125 159.656 296.32C159.805 297.515 159.88 298.891 159.88 300.448C159.88 302.475 159.741 304.203 159.464 305.632C159.208 307.04 158.845 308.171 158.376 309.024C157.928 309.877 157.298 310.539 156.488 311.008C155.698 311.456 154.877 311.755 154.024 311.904C153.17 312.053 152.114 312.128 150.856 312.128C149.789 312.128 148.893 312.085 148.168 312C147.442 311.915 146.706 311.744 145.96 311.488C145.213 311.211 144.605 310.816 144.136 310.304C143.666 309.771 143.24 309.077 142.856 308.224C142.472 307.371 142.194 306.304 142.024 305.024C141.853 303.723 141.768 302.197 141.768 300.448ZM144.136 300.448C144.136 302.517 144.232 304.16 144.424 305.376C144.637 306.592 145.032 307.531 145.608 308.192C146.205 308.853 146.888 309.28 147.656 309.472C148.424 309.664 149.49 309.76 150.856 309.76C151.922 309.76 152.797 309.696 153.48 309.568C154.162 309.419 154.781 309.163 155.336 308.8C155.89 308.416 156.317 307.872 156.616 307.168C156.914 306.464 157.138 305.579 157.288 304.512C157.437 303.424 157.512 302.069 157.512 300.448C157.512 299.381 157.48 298.432 157.416 297.6C157.352 296.747 157.277 296 157.192 295.36C157.106 294.72 156.957 294.165 156.744 293.696C156.53 293.205 156.338 292.8 156.168 292.48C155.997 292.16 155.741 291.893 155.4 291.68C155.058 291.445 154.76 291.275 154.504 291.168C154.269 291.04 153.906 290.955 153.416 290.912C152.946 290.848 152.552 290.816 152.232 290.816C151.912 290.795 151.453 290.784 150.856 290.784C150.258 290.784 149.8 290.795 149.48 290.816C149.181 290.816 148.786 290.848 148.296 290.912C147.826 290.955 147.464 291.04 147.208 291.168C146.952 291.275 146.653 291.445 146.312 291.68C145.97 291.893 145.704 292.16 145.512 292.48C145.341 292.8 145.149 293.205 144.936 293.696C144.722 294.165 144.562 294.72 144.456 295.36C144.37 296 144.296 296.747 144.232 297.6C144.168 298.453 144.136 299.403 144.136 300.448ZM179.873 312V292.736C179.873 291.307 180.225 290.261 180.929 289.6C181.633 288.917 182.539 288.576 183.649 288.576C183.691 288.576 183.734 288.576 183.777 288.576C183.819 288.576 183.862 288.576 183.905 288.576L194.017 289.088V290.944H183.905C183.393 290.944 182.998 291.051 182.721 291.264C182.465 291.456 182.315 291.659 182.273 291.872C182.251 292.064 182.241 292.352 182.241 292.736V299.136L192.737 299.456V301.344L182.241 301.664V312H179.873ZM213.997 291.104V289.216C213.997 288.576 214.295 288.256 214.893 288.256H216.685C217.239 288.256 217.517 288.576 217.517 289.216V292.384C217.517 293.003 217.41 293.525 217.197 293.952C216.962 294.357 216.685 294.635 216.365 294.784C215.789 295.04 215.362 295.168 215.085 295.168H214.509L214.189 295.104V293.984H214.253C214.935 293.984 215.277 293.611 215.277 292.864V292H214.893C214.295 292 213.997 291.701 213.997 291.104ZM237.534 290.944V288.576H253.79V290.944H246.75V312H244.382V290.944H237.534ZM272.514 312V288.576H282.498C286.103 288.576 287.906 290.923 287.906 295.616C287.906 299.712 286.551 301.952 283.842 302.336L288.77 312H286.21L281.282 302.432L274.882 301.984V312H272.514ZM274.882 299.872H282.498C282.882 299.872 283.18 299.861 283.394 299.84C283.607 299.819 283.863 299.744 284.162 299.616C284.482 299.467 284.716 299.253 284.866 298.976C285.036 298.677 285.186 298.251 285.314 297.696C285.442 297.12 285.506 296.427 285.506 295.616C285.506 293.739 285.228 292.501 284.674 291.904C284.119 291.285 283.394 290.976 282.498 290.976H274.882V299.872ZM307.003 312L315.611 288.576H317.979L326.203 312H323.387L321.371 305.472H312.027L309.915 312H307.003ZM312.891 303.104H320.539L316.763 292.192L312.891 303.104ZM344.44 288.576H347.032L353.88 308.224L361.048 288.576H363.64L355.032 312H352.664L344.44 288.576ZM382.998 308.064V292.736C382.998 291.307 383.35 290.261 384.054 289.6C384.758 288.917 385.664 288.576 386.774 288.576C386.816 288.576 386.859 288.576 386.902 288.576C386.944 288.576 386.987 288.576 387.03 288.576L397.142 289.088V290.944H387.03C386.518 290.944 386.123 291.051 385.846 291.264C385.59 291.456 385.44 291.659 385.398 291.872C385.376 292.064 385.366 292.352 385.366 292.736V299.136L395.862 299.456V301.344L385.366 301.664V308.064C385.366 308.448 385.419 308.768 385.526 309.024C385.632 309.259 385.792 309.429 386.006 309.536C386.219 309.621 386.4 309.675 386.55 309.696C386.72 309.717 386.955 309.728 387.254 309.728C387.254 309.728 387.264 309.728 387.286 309.728C387.307 309.728 387.328 309.728 387.35 309.728H397.142V311.552L387.35 312.096C387.264 312.096 387.179 312.096 387.094 312.096C387.008 312.117 386.923 312.128 386.838 312.128C386.304 312.128 385.824 312.075 385.398 311.968C384.971 311.84 384.566 311.637 384.182 311.36C383.819 311.061 383.531 310.635 383.318 310.08C383.104 309.525 382.998 308.853 382.998 308.064ZM417.154 307.968V288.576H419.522V307.968C419.522 308.203 419.543 308.405 419.586 308.576C419.628 308.747 419.671 308.896 419.714 309.024C419.778 309.131 419.863 309.227 419.97 309.312C420.076 309.397 420.172 309.461 420.258 309.504C420.364 309.547 420.492 309.579 420.642 309.6C420.791 309.621 420.908 309.632 420.994 309.632C421.1 309.632 421.239 309.632 421.41 309.632C421.41 309.632 421.42 309.632 421.442 309.632C421.463 309.632 421.484 309.632 421.506 309.632H431.298V312H421.506C420.887 312 420.354 311.957 419.906 311.872C419.458 311.787 419.01 311.616 418.562 311.36C418.114 311.104 417.762 310.688 417.506 310.112C417.271 309.536 417.154 308.821 417.154 307.968ZM450.486 296.192V294.08C450.486 291.925 451.041 290.443 452.15 289.632C453.26 288.8 454.817 288.384 456.822 288.384C458.273 288.384 460.94 288.64 464.822 289.152V291.072L456.822 290.752C456.566 290.731 456.342 290.72 456.15 290.72C455.062 290.72 454.241 290.955 453.686 291.424C453.132 291.872 452.854 292.757 452.854 294.08V296.192C452.854 297.515 453.11 298.368 453.622 298.752C454.156 299.136 454.988 299.328 456.118 299.328H460.662C463.99 299.328 465.654 301.163 465.654 304.832V307.008C465.654 308.096 465.473 309.003 465.11 309.728C464.748 310.453 464.236 310.997 463.574 311.36C462.913 311.701 462.241 311.936 461.558 312.064C460.876 312.192 460.086 312.256 459.19 312.256C458.444 312.256 457.121 312.16 455.222 311.968C453.345 311.776 452.001 311.605 451.19 311.456V309.536C453.537 309.771 456.204 309.888 459.19 309.888C461.921 309.888 463.286 308.928 463.286 307.008V304.832C463.286 303.829 463.094 303.061 462.71 302.528C462.326 301.973 461.644 301.696 460.662 301.696H456.182C454.966 301.696 453.953 301.547 453.142 301.248C452.353 300.949 451.777 300.512 451.414 299.936C451.052 299.36 450.806 298.795 450.678 298.24C450.55 297.664 450.486 296.981 450.486 296.192Z" fill="white"/>
<rect x="0.5" y="248.5" width="609" height="389" rx="11.5" stroke="#750088"/>
<defs>
<linearGradient id="paint0_linear_41164_6147" x1="-0.499983" y1="-13.5" x2="818.408" y2="434.95" gradientUnits="userSpaceOnUse">
<stop stop-color="#F7B201"/>
<stop offset="0.5376"/>
</linearGradient>
<linearGradient id="paint1_linear_41164_6147" x1="272.875" y1="213.05" x2="301.722" y2="296.521" gradientUnits="userSpaceOnUse">
<stop stop-color="#DCD59E"/>
<stop offset="1" stop-color="#CBBB82"/>
</linearGradient>
<linearGradient id="paint2_linear_41164_6147" x1="236.583" y1="216.493" x2="272.875" y2="273.536" gradientUnits="userSpaceOnUse">
<stop stop-color="#FBF3C0"/>
<stop offset="1" stop-color="#CCBC84"/>
</linearGradient>
<linearGradient id="paint3_linear_41164_6147" x1="91" y1="249" x2="711.801" y2="533.897" gradientUnits="userSpaceOnUse">
<stop offset="0.0776035" stop-color="#820075"/>
<stop offset="1" stop-color="#EBEBEB"/>
</linearGradient>
<linearGradient id="paint4_linear_41164_6147" x1="167.875" y1="310.05" x2="196.722" y2="393.521" gradientUnits="userSpaceOnUse">
<stop stop-color="#DCD59E"/>
<stop offset="1" stop-color="#CBBB82"/>
</linearGradient>
<linearGradient id="paint5_linear_41164_6147" x1="131.583" y1="313.493" x2="167.875" y2="370.536" gradientUnits="userSpaceOnUse">
<stop stop-color="#FBF3C0"/>
<stop offset="1" stop-color="#CCBC84"/>
</linearGradient>
<linearGradient id="paint6_linear_41164_6147" x1="31" y1="347" x2="613.125" y2="496.281" gradientUnits="userSpaceOnUse">
<stop offset="0.0776035" stop-color="#490082"/>
<stop offset="1" stop-color="#0B000F"/>
</linearGradient>
<linearGradient id="paint7_linear_41164_6147" x1="107.875" y1="408.05" x2="136.722" y2="491.521" gradientUnits="userSpaceOnUse">
<stop stop-color="#DCD59E"/>
<stop offset="1" stop-color="#CBBB82"/>
</linearGradient>
<linearGradient id="paint8_linear_41164_6147" x1="71.5833" y1="411.493" x2="107.875" y2="468.536" gradientUnits="userSpaceOnUse">
<stop stop-color="#FBF3C0"/>
<stop offset="1" stop-color="#CCBC84"/>
</linearGradient>
</defs>
</svg>
